<svg width="300" height="56" viewBox="0 0 300 56" fill="none" xmlns="http://www.w3.org/2000/svg">
<path d="M10.9086 45.2065C8.43447 45.2065 6.37559 44.5758 4.73195 43.3146C3.08831 42.0591 1.88874 40.4016 1.13325 38.3419C0.377749 36.288 0 34.0577 0 31.6509C0 26.9125 1.16208 22.1076 3.48625 17.2362C5.81041 12.3705 8.74589 8.35532 12.2927 5.19062C15.8337 2.02013 19.32 0.434884 22.7514 0.434884C24.3374 0.434884 25.5831 0.825411 26.4885 1.60646C27.394 2.38173 27.8467 3.58512 27.8467 5.21665C27.8467 6.65726 27.5151 8.3235 26.8519 10.2154C26.1887 12.1015 25.3582 13.7128 24.3605 15.0492C23.3627 16.3799 22.3852 17.0452 21.4279 17.0452C20.6897 17.0452 20.1158 16.62 19.7064 15.7695C21.0732 14.2132 22.4025 12.3242 23.6944 10.1026C24.9862 7.8809 25.6321 6.04688 25.6321 4.60049C25.6321 3.82522 25.4101 3.21485 24.966 2.76936C24.5219 2.32387 23.8385 2.10113 22.9158 2.10113C20.3725 2.10113 17.6417 3.75869 14.7235 7.07382C11.8111 10.3889 9.36586 14.4533 7.38773 19.2669C5.41536 24.0805 4.42918 28.5238 4.42918 32.5968C4.42918 35.6342 5.0751 38.1799 6.36694 40.2338C7.65878 42.2876 9.61385 43.3146 12.2321 43.3146C14.118 43.3146 16.0385 42.7678 17.9935 41.6744C19.9486 40.5867 21.7393 39.1345 23.3656 37.3178C24.9862 35.5012 26.2953 33.5196 27.2931 31.3732L28.0716 31.9286C26.0762 35.857 23.5934 39.0506 20.6233 41.5095C17.6533 43.9741 14.415 45.2065 10.9086 45.2065ZM31.0042 42.9848C29.7874 42.9848 28.7983 42.5856 28.037 41.7872C27.2815 40.9946 26.9038 39.8577 26.9038 38.3766C26.9038 36.1897 27.6881 33.7453 29.2568 31.0434C30.8254 28.3415 32.8094 26.0447 35.2085 24.1528C37.6076 22.2667 39.952 21.3237 42.2415 21.3237C43.6833 21.3237 44.8829 21.7113 45.8402 22.4866C46.7976 23.2676 47.2763 24.2685 47.2763 25.4893C47.2763 26.3397 47.0369 26.9501 46.5582 27.3204C46.0796 27.6907 45.4164 27.8758 44.5686 27.8758C44.7531 27.2105 44.8454 26.5625 44.8454 25.9319C44.8454 25.0062 44.6234 24.2569 44.1793 23.6842C43.7352 23.1114 43.0518 22.825 42.1291 22.825C40.5085 22.825 38.8014 23.7305 37.0078 25.5413C35.22 27.358 33.7263 29.5247 32.5268 32.0414C31.3272 34.5581 30.7274 36.7248 30.7274 38.5415C30.7274 39.9821 31.2263 40.7024 32.224 40.7024C33.7004 40.7024 35.4334 39.5279 37.4231 37.179C39.4185 34.8301 41.561 31.9691 43.8506 28.5961C44.3292 28.6713 44.8166 28.8304 45.3125 29.0734C45.8143 29.3106 46.0652 29.6144 46.0652 29.9846C46.0652 30.2797 45.8893 30.7512 45.5375 31.3992C45.1857 32.0472 44.9723 32.429 44.8973 32.5448C44.2687 33.6151 43.7698 34.5668 43.4007 35.3999C43.0316 36.2331 42.8471 37.0025 42.8471 37.7084C42.8471 38.339 43.0057 38.9031 43.3229 39.4006C43.6343 39.8982 44.1043 40.147 44.7329 40.147C45.8056 40.147 47.1523 39.3804 48.7728 37.8472C50.3992 36.3083 52.0053 34.1503 53.5913 31.3732L54.1449 31.9286C53.3721 33.8899 52.3744 35.64 51.1518 37.179C49.9349 38.718 48.6258 39.9127 47.2244 40.7631C45.8229 41.6136 44.4763 42.0389 43.1845 42.0389C41.8926 42.0389 40.9036 41.6599 40.2173 40.902C39.5367 40.1441 39.1965 39.2271 39.1965 38.151C39.1965 37.6708 39.2513 37.1327 39.3608 36.5368C37.6999 38.7585 36.2149 40.39 34.9057 41.4314C33.5966 42.467 32.2961 42.9848 31.0042 42.9848ZM48.9978 55.9242C48.7036 55.9242 48.4268 55.7767 48.1673 55.4816C47.9078 55.1866 47.6857 54.8539 47.5012 54.4836C47.3166 54.1133 47.2417 53.8906 47.2763 53.8154C47.7953 52.0392 48.4239 50.075 49.1621 47.9228C49.9753 45.5565 50.6587 43.3927 51.2123 41.4314C51.766 39.4643 52.3456 36.8058 52.9511 33.456C53.5625 30.1061 54.1824 25.8219 54.811 20.6034C54.8456 20.2331 54.9293 19.9814 55.0619 19.8483C55.1888 19.7211 55.4541 19.6574 55.8578 19.6574C56.7459 19.6574 57.412 19.9062 57.8561 20.4038C58.3002 20.9071 58.5222 21.5088 58.5222 22.2088C58.5222 23.2445 58.0954 25.7438 57.2419 29.7069C58.3896 27.4853 59.7852 25.5703 61.4289 23.9619C63.0667 22.3477 64.8661 21.5406 66.8269 21.5406C68.4475 21.5406 69.7855 22.125 70.8409 23.2936C71.8905 24.4623 72.4153 25.9897 72.4153 27.8758C72.4153 29.8371 71.8443 31.9199 70.7024 34.1242C69.5548 36.3285 67.9746 38.1625 65.9618 39.6263C63.9549 41.0842 61.7518 41.8132 59.3527 41.8132C58.4299 41.8132 57.6629 41.712 57.0516 41.5095C56.4403 41.307 56.1346 41.0756 56.1346 40.8152C56.1346 40.7053 56.273 40.633 56.5498 40.5983C56.8267 40.5578 57.1496 40.5375 57.5187 40.5375C59.4392 40.5375 61.2674 39.9271 63.0033 38.7064C64.7392 37.4856 66.1406 35.9293 67.2075 34.0374C68.2802 32.1513 68.8166 30.2652 68.8166 28.3792C68.8166 27.1179 68.5484 26.0881 68.0121 25.2897C67.4757 24.497 66.6914 24.1007 65.6591 24.1007C64.4768 24.1007 63.2686 24.5896 62.0344 25.5674C60.8002 26.5509 59.6929 27.737 58.7125 29.1255C57.7321 30.514 56.9853 31.8187 56.472 33.0394C55.1052 38.8886 53.7845 43.9712 52.51 48.2873C51.2354 52.6033 50.2867 55.0564 49.6639 55.6465C49.4793 55.8316 49.2573 55.9242 48.9978 55.9242ZM78.8341 42.9241C75.5526 42.9241 73.9119 41.0929 73.9119 37.4307C73.9119 35.8396 74.1973 33.8668 74.7683 31.512C75.3392 29.1631 76.1236 26.6724 77.1213 24.04C76.2331 23.8953 75.5699 23.7478 75.1316 23.5974V22.5994C76.4581 22.7498 77.2684 22.825 77.5625 22.825C79.1888 18.6016 80.9334 14.9451 82.7962 11.8556C84.659 8.76031 86.1267 7.21267 87.1994 7.21267C87.4935 7.21267 87.7617 7.32549 88.0039 7.55113C88.2404 7.77098 88.3586 8.06604 88.3586 8.43632C88.3586 8.91652 88.1279 9.61947 87.6665 10.5452C87.2052 11.4708 86.4208 12.897 85.3135 14.8236C85.129 15.1939 84.558 16.2208 83.6007 17.9044C82.6376 19.588 81.7696 21.2832 80.9968 22.9899H83.047C86.1094 22.9899 88.7479 22.8771 90.9625 22.6514V23.6581C86.937 24.0978 83.6901 24.3177 81.2217 24.3177H80.3913C78.3612 28.9866 77.3462 33.025 77.3462 36.4327C77.3462 38.0237 77.5855 39.1605 78.0642 39.8432C78.5429 40.5317 79.3359 40.876 80.4432 40.876C82.3233 40.876 84.1861 40.0313 86.0315 38.3419C87.877 36.6583 89.5207 34.3354 90.9625 31.3732L91.6805 31.9286C90.3137 35.1512 88.4682 37.7894 86.144 39.8432C83.8198 41.8971 81.3832 42.9241 78.8341 42.9241ZM95.7204 43.2018C93.3212 43.2018 91.568 42.4815 90.4607 41.0409C89.3534 39.5945 88.7998 37.8906 88.7998 35.9293C88.7998 34.4482 89.0593 33.401 89.5783 32.7878C90.0974 32.1803 90.6597 31.7464 91.2652 31.486C91.8766 31.2257 92.237 31.0405 92.3466 30.9306C94.7111 28.3387 96.5393 25.6542 97.8311 22.8771V22.2088C97.8311 20.9534 98.0416 20.0103 98.4627 19.3797C98.8894 18.7491 99.3969 18.4338 99.9852 18.4338C100.279 18.4338 100.501 18.4974 100.651 18.6247C100.801 18.7578 100.876 18.9342 100.876 19.1541C100.876 19.3045 100.819 19.6111 100.703 20.074C100.594 20.5368 100.539 21.046 100.539 21.6014C100.539 22.3419 100.64 23.1288 100.842 23.9619C101.049 24.795 101.372 25.8769 101.81 27.2076C102.33 28.7986 102.727 30.1871 103.004 31.3732C103.281 32.5592 103.42 33.7626 103.42 34.9834C103.42 35.9496 103.31 36.8579 103.091 37.7084C104.417 37.4827 105.651 36.881 106.793 35.9033C107.941 34.9197 109.031 33.4299 110.063 31.4339L110.565 31.9893C109.896 33.9101 108.881 35.426 107.52 36.5368C106.153 37.6476 104.584 38.3332 102.814 38.5936C102.26 40.1152 101.355 41.2636 100.098 42.0389C98.8404 42.8141 97.3813 43.2018 95.7204 43.2018ZM99.5959 37.6476C99.7458 36.6872 99.8208 35.8194 99.8208 35.0441C99.8208 33.9333 99.7285 32.8225 99.544 31.7116C99.3594 30.6008 99.0826 29.3222 98.7135 27.8758C98.379 26.3947 98.1772 25.4314 98.108 24.9859C96.2221 28.0986 94.4314 30.5053 92.7359 32.2063C93.3241 33.5023 94.218 34.6507 95.4176 35.6516C96.6172 36.6525 98.0099 37.3178 99.5959 37.6476ZM95.8328 41.2578C97.5341 41.2578 98.6962 40.3524 99.3191 38.5415C97.8427 38.2464 96.4961 37.6621 95.2792 36.7885C94.0623 35.9206 93.1396 34.9689 92.5109 33.9333C91.6978 33.968 91.2912 34.616 91.2912 35.8772C91.2912 37.2831 91.7064 38.5328 92.5369 39.6263C93.3674 40.714 94.466 41.2578 95.8328 41.2578ZM113.714 42.9241C110.432 42.9241 108.792 41.0929 108.792 37.4307C108.792 35.8396 109.077 33.8668 109.648 31.512C110.219 29.1631 111.003 26.6724 112.001 24.04C111.113 23.8953 110.45 23.7478 110.011 23.5974V22.5994C111.338 22.7498 112.148 22.825 112.442 22.825C114.069 18.6016 115.813 14.9451 117.676 11.8556C119.539 8.76031 121.006 7.21267 122.079 7.21267C122.373 7.21267 122.641 7.32549 122.884 7.55113C123.12 7.77098 123.238 8.06604 123.238 8.43632C123.238 8.91652 123.008 9.61947 122.546 10.5452C122.085 11.4708 121.301 12.897 120.193 14.8236C120.009 15.1939 119.438 16.2208 118.48 17.9044C117.517 19.588 116.649 21.2832 115.877 22.9899H117.927C120.989 22.9899 123.628 22.8771 125.842 22.6514V23.6581C121.817 24.0978 118.57 24.3177 116.101 24.3177H115.271C113.241 28.9866 112.226 33.025 112.226 36.4327C112.226 38.0237 112.465 39.1605 112.944 39.8432C113.423 40.5317 114.216 40.876 115.323 40.876C117.203 40.876 119.066 40.0313 120.911 38.3419C122.757 36.6583 124.4 34.3354 125.842 31.3732L126.56 31.9286C125.193 35.1512 123.348 37.7894 121.024 39.8432C118.7 41.8971 116.263 42.9241 113.714 42.9241ZM128.61 42.1517C127.099 42.1517 125.992 41.6888 125.289 40.7631C124.585 39.8375 124.233 38.6138 124.233 37.0922C124.233 35.5764 124.547 33.9854 125.176 32.3191C125.805 30.6529 126.618 29.2643 127.616 28.1535C128.613 27.0427 129.608 26.4873 130.6 26.4873C130.935 26.4873 131.324 26.5798 131.768 26.765C131.324 27.1353 130.788 27.951 130.159 29.2123C129.53 30.4677 128.985 31.81 128.524 33.239C128.063 34.6623 127.832 35.8194 127.832 36.7104C127.832 38.8163 128.498 39.8693 129.83 39.8693C130.603 39.8693 131.526 39.4643 132.598 38.6543C133.665 37.8385 134.718 36.7624 135.756 35.426C134.718 34.5755 133.913 33.4647 133.342 32.0935C132.771 30.7281 132.486 29.3048 132.486 27.8237C132.486 25.8971 132.976 24.2483 133.957 22.8771C134.931 21.5059 136.249 20.8203 137.91 20.8203C139.311 20.8203 140.3 21.1993 140.877 21.9572C141.448 22.7209 141.734 23.7681 141.734 25.0987C141.734 26.5046 141.39 28.087 140.704 29.8458C140.024 31.6046 139.13 33.3171 138.022 34.9834C138.686 35.3536 139.386 35.5388 140.125 35.5388C141.197 35.5388 142.305 35.2148 143.446 34.5668C144.594 33.9188 145.462 32.9092 146.05 31.5381L146.716 32.0935C146.013 33.725 145.015 34.9284 143.723 35.7037C142.431 36.4847 141.102 36.8753 139.735 36.8753C138.743 36.8753 137.858 36.6901 137.08 36.3198C135.753 38.0613 134.343 39.4672 132.849 40.5375C131.35 41.6136 129.937 42.1517 128.61 42.1517ZM136.751 33.9854C137.708 32.539 138.484 31.0665 139.078 29.5681C139.666 28.0696 139.96 26.6898 139.96 25.4285C139.96 24.3929 139.805 23.6176 139.493 23.1027C139.176 22.582 138.778 22.3217 138.299 22.3217C137.78 22.3217 137.255 22.5704 136.725 23.068C136.189 23.5713 135.744 24.2569 135.393 25.1248C135.041 25.9984 134.865 26.953 134.865 27.9886C134.865 29.1342 135.024 30.2363 135.341 31.2951C135.652 32.348 136.122 33.2448 136.751 33.9854ZM162.885 41.4834C161.627 41.4834 160.667 41.1595 160.004 40.5115C159.341 39.8635 159.009 39.0014 159.009 37.9253C159.009 37.4451 159.09 36.881 159.251 36.2331C159.419 35.5851 159.595 34.9458 159.779 34.3151C160.004 33.6498 160.197 32.9469 160.359 32.2063C160.526 31.4657 160.61 30.8004 160.61 30.2103C160.61 28.3936 159.871 27.4853 158.395 27.4853C156.994 27.4853 155.526 28.2258 153.992 29.7069C152.463 31.188 151.099 32.8369 149.9 34.6536C148.7 36.4645 147.342 38.6485 145.825 41.2057C145.203 41.2057 144.632 41.1045 144.113 40.902C143.594 40.6995 143.187 40.3929 142.893 39.9821C142.893 39.797 143.132 39.1316 143.611 37.9861C144.534 35.614 145.292 33.456 145.886 31.512C146.474 29.5681 146.789 27.8382 146.829 26.3224C147.083 26.0273 147.452 25.7583 147.936 25.5153C148.415 25.2723 148.894 25.1508 149.372 25.1508C150.37 25.1508 150.869 25.6339 150.869 26.6001C150.869 27.1555 150.702 28.1275 150.367 29.516C150.038 30.9045 149.614 32.377 149.095 33.9333C150.866 31.1909 152.749 28.8767 154.744 26.9906C156.734 25.0987 158.689 24.1528 160.61 24.1528C161.976 24.1528 163 24.6446 163.681 25.6281C164.367 26.6059 164.71 27.7803 164.71 29.1515C164.71 29.9673 164.609 30.7454 164.407 31.486C164.2 32.2266 163.894 33.077 163.49 34.0374C163.156 34.8532 162.896 35.559 162.712 36.1549C162.527 36.7451 162.435 37.3352 162.435 37.9253C162.435 39.337 162.988 40.0428 164.096 40.0428C165.353 40.0428 166.656 39.2097 168.006 37.5435C169.35 35.8772 170.63 33.8205 171.847 31.3732L172.461 32.0935C169.802 38.3535 166.61 41.4834 162.885 41.4834ZM176.778 42.8199C174.598 42.8199 172.928 42.2182 171.769 41.0148C170.604 39.8114 170.022 38.2638 170.022 36.3719C170.022 34.1907 170.742 31.8389 172.184 29.3164C173.62 26.7997 175.437 24.6822 177.634 22.9639C179.831 21.2398 181.983 20.3777 184.088 20.3777C186.377 20.3777 187.522 21.5059 187.522 23.7623C187.522 25.5789 186.839 27.2741 185.472 28.8478C184.105 30.4215 182.352 31.7087 180.212 32.7096C178.072 33.7105 175.93 34.3209 173.785 34.5408C173.64 35.1714 173.568 35.8367 173.568 36.5368C173.568 37.8733 173.9 38.9841 174.563 39.8693C175.226 40.7603 176.351 41.2057 177.937 41.2057C180.192 41.2057 182.464 40.2627 184.754 38.3766C187.038 36.4847 188.9 34.1503 190.342 31.3732L191.008 31.8765C189.532 35.1685 187.482 37.8154 184.858 39.8172C182.239 41.819 179.546 42.8199 176.778 42.8199ZM174.061 33.482C175.613 32.9266 177.239 32.1513 178.94 31.1562C180.636 30.1553 182.084 28.978 183.283 27.6241C184.483 26.2761 185.082 24.8615 185.082 23.3804C185.082 22.9349 184.999 22.6109 184.832 22.4085C184.664 22.2002 184.362 22.096 183.923 22.096C182.776 22.096 181.53 22.6717 180.186 23.823C178.837 24.9686 177.6 26.4294 176.475 28.2056C175.35 29.9875 174.546 31.7464 174.061 33.482ZM214.867 45.2065C212.802 45.2065 210.885 44.8362 209.114 44.0956C207.338 43.3551 205.925 42.2356 204.875 40.7371C203.826 39.2329 203.301 37.4075 203.301 35.2611C203.301 32.6344 204.019 30.7368 205.455 29.5681C206.897 28.4052 208.54 27.8237 210.386 27.8237C209.388 28.8941 208.63 30.0772 208.111 31.3732C207.597 32.6691 207.341 33.9651 207.341 35.2611C207.341 37.4827 208.07 39.3341 209.529 40.8152C210.983 42.2963 213.076 43.0369 215.81 43.0369C217.546 43.0369 219.198 42.7216 220.767 42.0909C222.335 41.4661 223.619 40.5404 224.616 39.3139C225.608 38.0931 226.104 36.6323 226.104 34.9313C226.104 33.4502 225.735 32.1456 224.997 31.0174C224.259 29.8834 223.336 28.9201 222.229 28.1275C221.121 27.3291 219.645 26.3745 217.8 25.2636C215.919 24.1528 214.417 23.1808 213.292 22.3477C212.168 21.5146 211.216 20.505 210.438 19.319C209.665 18.1387 209.279 16.7704 209.279 15.2141C209.279 13.0677 209.942 10.8373 211.268 8.5231C212.6 6.20887 214.475 4.27361 216.891 2.71729C219.308 1.16097 222.03 0.382812 225.057 0.382812C227.088 0.382812 228.564 0.883267 229.487 1.88417C230.409 2.88507 230.871 4.236 230.871 5.93695C230.871 7.78833 230.427 9.86246 229.539 12.1593C228.656 14.4562 227.679 16.4551 226.606 18.1561C225.389 17.8957 224.781 17.1002 224.781 15.7695C224.781 15.0637 224.919 14.2682 225.196 13.383C225.473 12.492 225.868 11.3812 226.381 10.0505C226.935 8.6041 227.35 7.42674 227.627 6.5184C227.904 5.61007 228.042 4.80588 228.042 4.10582C228.042 3.32477 227.811 2.73175 227.35 2.32676C226.889 1.92177 226.087 1.71928 224.945 1.71928C222.765 1.71928 220.744 2.3933 218.881 3.74133C217.018 5.09516 215.533 6.73536 214.426 8.66195C213.318 10.5828 212.765 12.3416 212.765 13.9384C212.765 15.1186 213.088 16.1716 213.734 17.0973C214.38 18.023 215.181 18.8301 216.139 19.5186C217.102 20.2013 218.414 21.0055 220.075 21.9311C222.064 23.0825 223.67 24.1094 224.893 25.012C226.11 25.9203 227.151 27.0687 228.016 28.4573C228.887 29.8458 229.322 31.486 229.322 33.3779C229.322 35.8194 228.61 37.9282 227.186 39.7044C225.767 41.4806 223.95 42.8431 221.736 43.7919C219.521 44.7349 217.231 45.2065 214.867 45.2065ZM235.905 42.4815C235.242 42.4815 234.697 41.9087 234.271 40.7631C233.85 39.6118 233.639 38.2609 233.639 36.7104C233.639 33.3027 234.68 28.7089 236.762 22.9292C238.85 17.1552 241.223 12.0089 243.881 7.49038C246.54 2.97185 248.642 0.71259 250.188 0.71259C250.782 0.71259 251.235 1.07419 251.546 1.79738C251.863 2.52058 252.022 3.32767 252.022 4.21864C252.022 5.95431 251.402 8.26854 250.162 11.1613C248.928 14.0483 247.322 16.8254 245.343 19.4925C243.371 22.1539 241.353 24.1152 239.288 25.3764C238.619 26.9328 238.111 28.7379 237.765 30.7917C237.414 32.8456 237.238 34.6883 237.238 36.3198C237.238 36.91 237.275 37.5377 237.35 38.203C238.827 33.9101 240.496 30.4388 242.359 27.789C244.222 25.145 246.298 23.823 248.587 23.823C249.989 23.823 251.041 24.3119 251.745 25.2897C252.443 26.2732 252.792 27.4506 252.792 28.8217C252.792 29.6375 252.691 30.4157 252.489 31.1562C252.287 31.8968 251.964 32.8572 251.52 34.0374C251.151 35.0383 250.874 35.8367 250.69 36.4327C250.505 37.0228 250.413 37.5956 250.413 38.151C250.413 38.8568 250.56 39.3833 250.854 39.7304C251.148 40.0833 251.555 40.2598 252.074 40.2598C253.331 40.2598 254.807 39.3804 256.503 37.6216C258.198 35.8628 259.6 33.78 260.707 31.3732L261.434 32.0414C260.211 34.8532 258.651 37.1674 256.754 38.9841C254.851 40.8008 252.867 41.7091 250.802 41.7091C249.585 41.7091 248.642 41.3851 247.973 40.7371C247.31 40.0891 246.978 39.2444 246.978 38.203C246.978 37.3931 247.255 36.0797 247.809 34.2631C248.403 32.2613 248.7 30.7802 248.7 29.8198C248.7 28.8941 248.504 28.2172 248.112 27.789C247.725 27.3667 247.218 27.1555 246.589 27.1555C245.228 27.1555 244.04 27.9597 243.025 29.5681C242.01 31.1823 240.911 33.4502 239.729 36.3719C238.841 38.5183 238.14 40.0747 237.627 41.0409C237.108 42.0013 236.534 42.4815 235.905 42.4815ZM240.006 23.2069C241.592 21.9514 243.169 20.1289 244.738 17.7395C246.307 15.3501 247.598 12.9809 248.613 10.6319C249.628 8.27721 250.136 6.61965 250.136 5.65925C250.136 5.36418 250.061 5.21665 249.911 5.21665C249.507 5.21665 248.668 6.13366 247.394 7.96769C246.119 9.79592 244.781 12.0986 243.38 14.8756C241.978 17.6527 240.854 20.4298 240.006 23.2069ZM263.475 42.1517C261.964 42.1517 260.857 41.6888 260.154 40.7631C259.456 39.8375 259.107 38.6138 259.107 37.0922C259.107 35.5764 259.421 33.9854 260.05 32.3191C260.673 30.6529 261.483 29.2643 262.481 28.1535C263.478 27.0427 264.476 26.4873 265.474 26.4873C265.802 26.4873 266.189 26.5798 266.633 26.765C266.189 27.1353 265.655 27.951 265.033 29.2123C264.404 30.4677 263.859 31.81 263.398 33.239C262.936 34.6623 262.705 35.8194 262.705 36.7104C262.705 38.8163 263.369 39.8693 264.695 39.8693C265.474 39.8693 266.396 39.4643 267.463 38.6543C268.536 37.8385 269.589 36.7624 270.621 35.426C269.589 34.5755 268.787 33.4647 268.216 32.0935C267.639 30.7281 267.351 29.3048 267.351 27.8237C267.351 25.8971 267.841 24.2483 268.822 22.8771C269.802 21.5059 271.123 20.8203 272.784 20.8203C274.185 20.8203 275.171 21.1993 275.742 21.9572C276.313 22.7209 276.599 23.7681 276.599 25.0987C276.599 26.5046 276.258 28.087 275.578 29.8458C274.891 31.6046 273.995 33.3171 272.887 34.9834C273.556 35.3536 274.26 35.5388 274.998 35.5388C276.065 35.5388 277.172 35.2148 278.32 34.5668C279.462 33.9188 280.327 32.9092 280.915 31.5381L281.581 32.0935C280.884 33.725 279.889 34.9284 278.597 35.7037C277.305 36.4847 275.976 36.8753 274.609 36.8753C273.611 36.8753 272.726 36.6901 271.953 36.3198C270.621 38.0613 269.208 39.4672 267.714 40.5375C266.221 41.6136 264.808 42.1517 263.475 42.1517ZM271.616 33.9854C272.579 32.539 273.355 31.0665 273.943 29.5681C274.531 28.0696 274.825 26.6898 274.825 25.4285C274.825 24.3929 274.669 23.6176 274.358 23.1027C274.047 22.582 273.649 22.3217 273.164 22.3217C272.651 22.3217 272.126 22.5704 271.59 23.068C271.053 23.5713 270.609 24.2569 270.258 25.1248C269.912 25.9984 269.739 26.953 269.739 27.9886C269.739 29.1342 269.894 30.2363 270.206 31.2951C270.517 32.348 270.987 33.2448 271.616 33.9854ZM276.382 55.9242C276.082 55.9242 275.806 55.7767 275.552 55.4816C275.292 55.1866 275.07 54.8539 274.886 54.4836C274.701 54.1133 274.626 53.8906 274.661 53.8154C275.18 52.0392 275.808 50.075 276.547 47.9228C277.36 45.5565 278.043 43.3927 278.597 41.4314C279.151 39.4643 279.73 36.8058 280.336 33.456C280.947 30.1061 281.567 25.8219 282.196 20.6034C282.23 20.2331 282.311 19.9814 282.438 19.8483C282.57 19.7211 282.839 19.6574 283.242 19.6574C284.13 19.6574 284.797 19.9062 285.241 20.4038C285.679 20.9071 285.898 21.5088 285.898 22.2088C285.898 23.2445 285.474 25.7438 284.626 29.7069C285.774 27.4853 287.167 25.5703 288.805 23.9619C290.448 22.3477 292.248 21.5406 294.203 21.5406C295.829 21.5406 297.167 22.125 298.217 23.2936C299.272 24.4623 299.8 25.9897 299.8 27.8758C299.8 29.8371 299.226 31.9199 298.078 34.1242C296.936 36.3285 295.359 38.1625 293.346 39.6263C291.334 41.0842 289.128 41.8132 286.729 41.8132C285.806 41.8132 285.042 41.712 284.436 41.5095C283.825 41.307 283.519 41.0756 283.519 40.8152C283.519 40.7053 283.658 40.633 283.934 40.5983C284.211 40.5578 284.534 40.5375 284.903 40.5375C286.824 40.5375 288.652 39.9271 290.388 38.7064C292.124 37.4856 293.525 35.9293 294.592 34.0374C295.665 32.1513 296.201 30.2652 296.201 28.3792C296.201 27.1179 295.933 26.0881 295.397 25.2897C294.86 24.497 294.076 24.1007 293.044 24.1007C291.861 24.1007 290.653 24.5896 289.419 25.5674C288.179 26.5509 287.072 27.737 286.097 29.1255C285.117 30.514 284.37 31.8187 283.857 33.0394C282.49 38.8886 281.169 43.9712 279.894 48.2873C278.62 52.6033 277.668 55.0564 277.04 55.6465C276.855 55.8316 276.636 55.9242 276.382 55.9242Z" fill="url(#paint0_linear_1551_13)"/>
<path d="M10.9086 44.8236C8.43447 44.8236 6.37559 44.193 4.73195 42.9318C3.08831 41.6763 1.88874 40.0187 1.13325 37.9591C0.377749 35.9052 0 33.6749 0 31.2681C0 26.5297 1.16208 21.7248 3.48625 16.8533C5.81041 11.9877 8.74589 7.97251 12.2927 4.8078C15.8337 1.63731 19.32 0.0520713 22.7514 0.0520713C24.3374 0.0520713 25.5831 0.442599 26.4885 1.22365C27.394 1.99892 27.8467 3.20231 27.8467 4.83384C27.8467 6.27445 27.5151 7.94069 26.8519 9.83257C26.1887 11.7187 25.3582 13.3299 24.3605 14.6664C23.3627 15.9971 22.3852 16.6624 21.4279 16.6624C20.6897 16.6624 20.1158 16.2372 19.7064 15.3867C21.0732 13.8304 22.4025 11.9414 23.6944 9.71975C24.9862 7.49809 25.6321 5.66407 25.6321 4.21768C25.6321 3.44241 25.4101 2.83203 24.966 2.38654C24.5219 1.94106 23.8385 1.71832 22.9158 1.71832C20.3725 1.71832 17.6417 3.37588 14.7235 6.69101C11.8111 10.0061 9.36586 14.0705 7.38773 18.8841C5.41536 23.6977 4.42918 28.141 4.42918 32.214C4.42918 35.2514 5.0751 37.7971 6.36694 39.851C7.65878 41.9048 9.61385 42.9318 12.2321 42.9318C14.118 42.9318 16.0385 42.385 17.9935 41.2916C19.9486 40.2039 21.7393 38.7517 23.3656 36.935C24.9862 35.1184 26.2953 33.1368 27.2931 30.9904L28.0716 31.5458C26.0762 35.4742 23.5934 38.6678 20.6233 41.1267C17.6533 43.5913 14.415 44.8236 10.9086 44.8236ZM31.0042 42.602C29.7874 42.602 28.7983 42.2028 28.037 41.4044C27.2815 40.6118 26.9038 39.4749 26.9038 37.9938C26.9038 35.8068 27.6881 33.3624 29.2568 30.6606C30.8254 27.9587 32.8094 25.6619 35.2085 23.77C37.6076 21.8839 39.952 20.9408 42.2415 20.9408C43.6833 20.9408 44.8829 21.3285 45.8402 22.1037C46.7976 22.8848 47.2763 23.8857 47.2763 25.1065C47.2763 25.9569 47.0369 26.5673 46.5582 26.9376C46.0796 27.3079 45.4164 27.493 44.5686 27.493C44.7531 26.8277 44.8454 26.1797 44.8454 25.549C44.8454 24.6234 44.6234 23.8741 44.1793 23.3014C43.7352 22.7286 43.0518 22.4422 42.1291 22.4422C40.5085 22.4422 38.8014 23.3476 37.0078 25.1585C35.22 26.9752 33.7263 29.1419 32.5268 31.6586C31.3272 34.1753 30.7274 36.342 30.7274 38.1587C30.7274 39.5993 31.2263 40.3196 32.224 40.3196C33.7004 40.3196 35.4334 39.1451 37.4231 36.7962C39.4185 34.4472 41.561 31.5863 43.8506 28.2133C44.3292 28.2885 44.8166 28.4476 45.3125 28.6906C45.8143 28.9278 46.0652 29.2316 46.0652 29.6018C46.0652 29.8969 45.8893 30.3684 45.5375 31.0164C45.1857 31.6644 44.9723 32.0462 44.8973 32.1619C44.2687 33.2323 43.7698 34.184 43.4007 35.0171C43.0316 35.8502 42.8471 36.6197 42.8471 37.3256C42.8471 37.9562 43.0057 38.5203 43.3229 39.0178C43.6343 39.5154 44.1043 39.7642 44.7329 39.7642C45.8056 39.7642 47.1523 38.9976 48.7728 37.4644C50.3992 35.9255 52.0053 33.7674 53.5913 30.9904L54.1449 31.5458C53.3721 33.5071 52.3744 35.2572 51.1518 36.7962C49.9349 38.3351 48.6258 39.5299 47.2244 40.3803C45.8229 41.2308 44.4763 41.6561 43.1845 41.6561C41.8926 41.6561 40.9036 41.2771 40.2173 40.5192C39.5367 39.7613 39.1965 38.8443 39.1965 37.7682C39.1965 37.288 39.2513 36.7499 39.3608 36.154C37.6999 38.3756 36.2149 40.0072 34.9057 41.0486C33.5966 42.0842 32.2961 42.602 31.0042 42.602ZM48.9978 55.5414C48.7036 55.5414 48.4268 55.3939 48.1673 55.0988C47.9078 54.8037 47.6857 54.4711 47.5012 54.1008C47.3166 53.7305 47.2417 53.5078 47.2763 53.4326C47.7953 51.6564 48.4239 49.6922 49.1621 47.54C49.9753 45.1737 50.6587 43.0099 51.2123 41.0486C51.766 39.0815 52.3456 36.423 52.9511 33.0732C53.5625 29.7233 54.1824 25.4391 54.811 20.2205C54.8456 19.8503 54.9293 19.5986 55.0619 19.4655C55.1888 19.3382 55.4541 19.2746 55.8578 19.2746C56.7459 19.2746 57.412 19.5234 57.8561 20.0209C58.3002 20.5243 58.5222 21.126 58.5222 21.826C58.5222 22.8617 58.0954 25.361 57.2419 29.3241C58.3896 27.1025 59.7852 25.1874 61.4289 23.5791C63.0667 21.9649 64.8661 21.1578 66.8269 21.1578C68.4475 21.1578 69.7855 21.7421 70.8409 22.9108C71.8905 24.0795 72.4153 25.6069 72.4153 27.493C72.4153 29.4543 71.8443 31.5371 70.7024 33.7414C69.5548 35.9457 67.9746 37.7797 65.9618 39.2435C63.9549 40.7014 61.7518 41.4304 59.3527 41.4304C58.4299 41.4304 57.6629 41.3292 57.0516 41.1267C56.4403 40.9242 56.1346 40.6928 56.1346 40.4324C56.1346 40.3225 56.273 40.2502 56.5498 40.2154C56.8267 40.1749 57.1496 40.1547 57.5187 40.1547C59.4392 40.1547 61.2674 39.5443 63.0033 38.3236C64.7392 37.1028 66.1406 35.5465 67.2075 33.6546C68.2802 31.7685 68.8166 29.8824 68.8166 27.9963C68.8166 26.7351 68.5484 25.7053 68.0121 24.9068C67.4757 24.1142 66.6914 23.7179 65.6591 23.7179C64.4768 23.7179 63.2686 24.2068 62.0344 25.1846C60.8002 26.1681 59.6929 27.3541 58.7125 28.7427C57.7321 30.1312 56.9853 31.4359 56.472 32.6566C55.1052 38.5058 53.7845 43.5884 52.51 47.9045C51.2354 52.2205 50.2867 54.6736 49.6639 55.2637C49.4793 55.4488 49.2573 55.5414 48.9978 55.5414ZM78.8341 42.5412C75.5526 42.5412 73.9119 40.7101 73.9119 37.0479C73.9119 35.4568 74.1973 33.4839 74.7683 31.1292C75.3392 28.7803 76.1236 26.2896 77.1213 23.6572C76.2331 23.5125 75.5699 23.365 75.1316 23.2146V22.2166C76.4581 22.367 77.2684 22.4422 77.5625 22.4422C79.1888 18.2187 80.9334 14.5623 82.7962 11.4728C84.659 8.3775 86.1267 6.82986 87.1994 6.82986C87.4935 6.82986 87.7617 6.94268 88.0039 7.16831C88.2404 7.38817 88.3586 7.68323 88.3586 8.05351C88.3586 8.53371 88.1279 9.23665 87.6665 10.1623C87.2052 11.088 86.4208 12.5142 85.3135 14.4408C85.129 14.811 84.558 15.838 83.6007 17.5216C82.6376 19.2052 81.7696 20.9003 80.9968 22.6071H83.047C86.1094 22.6071 88.7479 22.4943 90.9625 22.2686V23.2753C86.937 23.715 83.6901 23.9349 81.2217 23.9349H80.3913C78.3612 28.6038 77.3462 32.6421 77.3462 36.0498C77.3462 37.6409 77.5855 38.7777 78.0642 39.4604C78.5429 40.1489 79.3359 40.4932 80.4432 40.4932C82.3233 40.4932 84.1861 39.6485 86.0315 37.9591C87.877 36.2755 89.5207 33.9526 90.9625 30.9904L91.6805 31.5458C90.3137 34.7683 88.4682 37.4066 86.144 39.4604C83.8198 41.5143 81.3832 42.5412 78.8341 42.5412ZM95.7204 42.8189C93.3212 42.8189 91.568 42.0986 90.4607 40.658C89.3534 39.2117 88.7998 37.5078 88.7998 35.5465C88.7998 34.0654 89.0593 33.0182 89.5783 32.4049C90.0974 31.7975 90.6597 31.3635 91.2652 31.1032C91.8766 30.8428 92.237 30.6577 92.3466 30.5478C94.7111 27.9558 96.5393 25.2713 97.8311 22.4943V21.826C97.8311 20.5706 98.0416 19.6275 98.4627 18.9969C98.8894 18.3663 99.3969 18.051 99.9852 18.051C100.279 18.051 100.501 18.1146 100.651 18.2419C100.801 18.3749 100.876 18.5514 100.876 18.7713C100.876 18.9217 100.819 19.2283 100.703 19.6912C100.594 20.154 100.539 20.6631 100.539 21.2186C100.539 21.9591 100.64 22.7459 100.842 23.5791C101.049 24.4122 101.372 25.4941 101.81 26.8248C102.33 28.4158 102.727 29.8043 103.004 30.9904C103.281 32.1764 103.42 33.3798 103.42 34.6006C103.42 35.5667 103.31 36.4751 103.091 37.3256C104.417 37.0999 105.651 36.4982 106.793 35.5205C107.941 34.5369 109.031 33.0471 110.063 31.0511L110.565 31.6065C109.896 33.5273 108.881 35.0432 107.52 36.154C106.153 37.2648 104.584 37.9504 102.814 38.2108C102.26 39.7324 101.355 40.8808 100.098 41.6561C98.8404 42.4313 97.3813 42.8189 95.7204 42.8189ZM99.5959 37.2648C99.7458 36.3044 99.8208 35.4366 99.8208 34.6613C99.8208 33.5505 99.7285 32.4397 99.544 31.3288C99.3594 30.218 99.0826 28.9394 98.7135 27.493C98.379 26.0119 98.1772 25.0486 98.108 24.6031C96.2221 27.7157 94.4314 30.1225 92.7359 31.8235C93.3241 33.1195 94.218 34.2679 95.4176 35.2688C96.6172 36.2697 98.0099 36.935 99.5959 37.2648ZM95.8328 40.875C97.5341 40.875 98.6962 39.9696 99.3191 38.1587C97.8427 37.8636 96.4961 37.2793 95.2792 36.4057C94.0623 35.5378 93.1396 34.5861 92.5109 33.5505C91.6978 33.5852 91.2912 34.2332 91.2912 35.4944C91.2912 36.9003 91.7064 38.15 92.5369 39.2435C93.3674 40.3312 94.466 40.875 95.8328 40.875ZM113.714 42.5412C110.432 42.5412 108.792 40.7101 108.792 37.0479C108.792 35.4568 109.077 33.4839 109.648 31.1292C110.219 28.7803 111.003 26.2896 112.001 23.6572C111.113 23.5125 110.45 23.365 110.011 23.2146V22.2166C111.338 22.367 112.148 22.4422 112.442 22.4422C114.069 18.2187 115.813 14.5623 117.676 11.4728C119.539 8.3775 121.006 6.82986 122.079 6.82986C122.373 6.82986 122.641 6.94268 122.884 7.16831C123.12 7.38817 123.238 7.68323 123.238 8.05351C123.238 8.53371 123.008 9.23665 122.546 10.1623C122.085 11.088 121.301 12.5142 120.193 14.4408C120.009 14.811 119.438 15.838 118.48 17.5216C117.517 19.2052 116.649 20.9003 115.877 22.6071H117.927C120.989 22.6071 123.628 22.4943 125.842 22.2686V23.2753C121.817 23.715 118.57 23.9349 116.101 23.9349H115.271C113.241 28.6038 112.226 32.6421 112.226 36.0498C112.226 37.6409 112.465 38.7777 112.944 39.4604C113.423 40.1489 114.216 40.4932 115.323 40.4932C117.203 40.4932 119.066 39.6485 120.911 37.9591C122.757 36.2755 124.4 33.9526 125.842 30.9904L126.56 31.5458C125.193 34.7683 123.348 37.4066 121.024 39.4604C118.7 41.5143 116.263 42.5412 113.714 42.5412ZM128.61 41.7689C127.099 41.7689 125.992 41.306 125.289 40.3803C124.585 39.4546 124.233 38.231 124.233 36.7094C124.233 35.1936 124.547 33.6026 125.176 31.9363C125.805 30.2701 126.618 28.8815 127.616 27.7707C128.613 26.6599 129.608 26.1045 130.6 26.1045C130.935 26.1045 131.324 26.197 131.768 26.3822C131.324 26.7524 130.788 27.5682 130.159 28.8295C129.53 30.0849 128.985 31.4272 128.524 32.8562C128.063 34.2795 127.832 35.4366 127.832 36.3275C127.832 38.4335 128.498 39.4865 129.83 39.4865C130.603 39.4865 131.526 39.0815 132.598 38.2715C133.665 37.4557 134.718 36.3796 135.756 35.0432C134.718 34.1927 133.913 33.0818 133.342 31.7107C132.771 30.3453 132.486 28.922 132.486 27.4409C132.486 25.5143 132.976 23.8654 133.957 22.4943C134.931 21.1231 136.249 20.4375 137.91 20.4375C139.311 20.4375 140.3 20.8165 140.877 21.5744C141.448 22.3381 141.734 23.3852 141.734 24.7159C141.734 26.1218 141.39 27.7042 140.704 29.463C140.024 31.2218 139.13 32.9343 138.022 34.6006C138.686 34.9708 139.386 35.156 140.125 35.156C141.197 35.156 142.305 34.832 143.446 34.184C144.594 33.536 145.462 32.5264 146.05 31.1553L146.716 31.7107C146.013 33.3422 145.015 34.5456 143.723 35.3209C142.431 36.1019 141.102 36.4924 139.735 36.4924C138.743 36.4924 137.858 36.3073 137.08 35.937C135.753 37.6785 134.343 39.0844 132.849 40.1547C131.35 41.2308 129.937 41.7689 128.61 41.7689ZM136.751 33.6025C137.708 32.1562 138.484 30.6837 139.078 29.1853C139.666 27.6868 139.96 26.307 139.96 25.0457C139.96 24.0101 139.805 23.2348 139.493 22.7199C139.176 22.1992 138.778 21.9389 138.299 21.9389C137.78 21.9389 137.255 22.1876 136.725 22.6852C136.189 23.1885 135.744 23.8741 135.393 24.742C135.041 25.6156 134.865 26.5702 134.865 27.6058C134.865 28.7514 135.024 29.8535 135.341 30.9123C135.652 31.9652 136.122 32.862 136.751 33.6025ZM162.885 41.1006C161.627 41.1006 160.667 40.7766 160.004 40.1287C159.341 39.4807 159.009 38.6186 159.009 37.5425C159.009 37.0623 159.09 36.4982 159.251 35.8502C159.419 35.2023 159.595 34.563 159.779 33.9323C160.004 33.267 160.197 32.564 160.359 31.8235C160.526 31.0829 160.61 30.4176 160.61 29.8275C160.61 28.0108 159.871 27.1025 158.395 27.1025C156.994 27.1025 155.526 27.843 153.992 29.3241C152.463 30.8052 151.099 32.4541 149.9 34.2708C148.7 36.0817 147.342 38.2657 145.825 40.8229C145.203 40.8229 144.632 40.7217 144.113 40.5192C143.594 40.3167 143.187 40.0101 142.893 39.5993C142.893 39.4141 143.132 38.7488 143.611 37.6033C144.534 35.2312 145.292 33.0732 145.886 31.1292C146.474 29.1853 146.789 27.4554 146.829 25.9396C147.083 25.6445 147.452 25.3755 147.936 25.1325C148.415 24.8895 148.894 24.768 149.372 24.768C150.37 24.768 150.869 25.2511 150.869 26.2173C150.869 26.7727 150.702 27.7447 150.367 29.1332C150.038 30.5217 149.614 31.9942 149.095 33.5505C150.866 30.8081 152.749 28.4939 154.744 26.6078C156.734 24.7159 158.689 23.77 160.61 23.77C161.976 23.77 163 24.2618 163.681 25.2453C164.367 26.2231 164.71 27.3975 164.71 28.7687C164.71 29.5845 164.609 30.3626 164.407 31.1032C164.2 31.8437 163.894 32.6942 163.49 33.6546C163.156 34.4704 162.896 35.1762 162.712 35.7721C162.527 36.3623 162.435 36.9524 162.435 37.5425C162.435 38.9542 162.988 39.66 164.096 39.66C165.353 39.66 166.656 38.8269 168.006 37.1607C169.35 35.4944 170.63 33.4377 171.847 30.9904L172.461 31.7107C169.802 37.9706 166.61 41.1006 162.885 41.1006ZM176.778 42.4371C174.598 42.4371 172.928 41.8354 171.769 40.632C170.604 39.4286 170.022 37.881 170.022 35.9891C170.022 33.8079 170.742 31.4561 172.184 28.9336C173.62 26.4169 175.437 24.2994 177.634 22.5811C179.831 20.857 181.983 19.9949 184.088 19.9949C186.377 19.9949 187.522 21.1231 187.522 23.3795C187.522 25.1961 186.839 26.8913 185.472 28.465C184.105 30.0386 182.352 31.3259 180.212 32.3268C178.072 33.3277 175.93 33.9381 173.785 34.158C173.64 34.7886 173.568 35.4539 173.568 36.154C173.568 37.4904 173.9 38.6013 174.563 39.4865C175.226 40.3774 176.351 40.8229 177.937 40.8229C180.192 40.8229 182.464 39.8799 184.754 37.9938C187.038 36.1019 188.9 33.7674 190.342 30.9904L191.008 31.4937C189.532 34.7857 187.482 37.4326 184.858 39.4344C182.239 41.4362 179.546 42.4371 176.778 42.4371ZM174.061 33.0992C175.613 32.5438 177.239 31.7685 178.94 30.7734C180.636 29.7725 182.084 28.5951 183.283 27.2413C184.483 25.8933 185.082 24.4787 185.082 22.9976C185.082 22.5521 184.999 22.2281 184.832 22.0256C184.664 21.8174 184.362 21.7132 183.923 21.7132C182.776 21.7132 181.53 22.2889 180.186 23.4402C178.837 24.5858 177.6 26.0466 176.475 27.8228C175.35 29.6047 174.546 31.3635 174.061 33.0992ZM214.867 44.8236C212.802 44.8236 210.885 44.4534 209.114 43.7128C207.338 42.9723 205.925 41.8528 204.875 40.3543C203.826 38.8501 203.301 37.0247 203.301 34.8783C203.301 32.2516 204.019 30.354 205.455 29.1853C206.897 28.0224 208.54 27.4409 210.386 27.4409C209.388 28.5113 208.63 29.6944 208.111 30.9904C207.597 32.2863 207.341 33.5823 207.341 34.8783C207.341 37.0999 208.07 38.9513 209.529 40.4324C210.983 41.9135 213.076 42.6541 215.81 42.6541C217.546 42.6541 219.198 42.3387 220.767 41.7081C222.335 41.0833 223.619 40.1576 224.616 38.9311C225.608 37.7103 226.104 36.2494 226.104 34.5485C226.104 33.0674 225.735 31.7627 224.997 30.6346C224.259 29.5006 223.336 28.5373 222.229 27.7447C221.121 26.9463 219.645 25.9916 217.8 24.8808C215.919 23.77 214.417 22.798 213.292 21.9649C212.168 21.1318 211.216 20.1222 210.438 18.9361C209.665 17.7559 209.279 16.3876 209.279 14.8313C209.279 12.6848 209.942 10.4545 211.268 8.14029C212.6 5.82606 214.475 3.89079 216.891 2.33448C219.308 0.77816 222.03 0 225.057 0C227.088 0 228.564 0.500454 229.487 1.50136C230.409 2.50226 230.871 3.85319 230.871 5.55414C230.871 7.40552 230.427 9.47965 229.539 11.7765C228.656 14.0734 227.679 16.0723 226.606 17.7732C225.389 17.5129 224.781 16.7174 224.781 15.3867C224.781 14.6809 224.919 13.8854 225.196 13.0002C225.473 12.1092 225.868 10.9984 226.381 9.66768C226.935 8.22129 227.35 7.04393 227.627 6.13559C227.904 5.22726 228.042 4.42306 228.042 3.72301C228.042 2.94196 227.811 2.34894 227.35 1.94395C226.889 1.53896 226.087 1.33647 224.945 1.33647C222.765 1.33647 220.744 2.01049 218.881 3.35852C217.018 4.71234 215.533 6.35255 214.426 8.27914C213.318 10.1999 212.765 11.9588 212.765 13.5556C212.765 14.7358 213.088 15.7888 213.734 16.7145C214.38 17.6402 215.181 18.4473 216.139 19.1357C217.102 19.8184 218.414 20.6226 220.075 21.5483C222.064 22.6997 223.67 23.7266 224.893 24.6291C226.11 25.5375 227.151 26.6859 228.016 28.0744C228.887 29.463 229.322 31.1032 229.322 32.9951C229.322 35.4366 228.61 37.5454 227.186 39.3216C225.767 41.0977 223.95 42.4602 221.736 43.4091C219.521 44.3521 217.231 44.8236 214.867 44.8236ZM235.905 42.0986C235.242 42.0986 234.697 41.5259 234.271 40.3803C233.85 39.229 233.639 37.8781 233.639 36.3275C233.639 32.9199 234.68 28.3261 236.762 22.5463C238.85 16.7723 241.223 11.6261 243.881 7.10757C246.54 2.58904 248.642 0.329778 250.188 0.329778C250.782 0.329778 251.235 0.691376 251.546 1.41457C251.863 2.13777 252.022 2.94485 252.022 3.83583C252.022 5.5715 251.402 7.88572 250.162 10.7785C248.928 13.6655 247.322 16.4426 245.343 19.1097C243.371 21.7711 241.353 23.7324 239.288 24.9936C238.619 26.5499 238.111 28.355 237.765 30.4089C237.414 32.4628 237.238 34.3055 237.238 35.937C237.238 36.5272 237.275 37.1549 237.35 37.8202C238.827 33.5273 240.496 30.056 242.359 27.4062C244.222 24.7622 246.298 23.4402 248.587 23.4402C249.989 23.4402 251.041 23.9291 251.745 24.9068C252.443 25.8904 252.792 27.0678 252.792 28.4389C252.792 29.2547 252.691 30.0329 252.489 30.7734C252.287 31.514 251.964 32.4744 251.52 33.6546C251.151 34.6555 250.874 35.4539 250.69 36.0498C250.505 36.64 250.413 37.2127 250.413 37.7682C250.413 38.474 250.56 39.0005 250.854 39.3476C251.148 39.7005 251.555 39.877 252.074 39.877C253.331 39.877 254.807 38.9976 256.503 37.2388C258.198 35.48 259.6 33.3972 260.707 30.9904L261.434 31.6586C260.211 34.4704 258.651 36.7846 256.754 38.6013C254.851 40.4179 252.867 41.3263 250.802 41.3263C249.585 41.3263 248.642 41.0023 247.973 40.3543C247.31 39.7063 246.978 38.8616 246.978 37.8202C246.978 37.0102 247.255 35.6969 247.809 33.8803C248.403 31.8785 248.7 30.3973 248.7 29.4369C248.7 28.5113 248.504 27.8343 248.112 27.4062C247.725 26.9839 247.218 26.7727 246.589 26.7727C245.228 26.7727 244.04 27.5769 243.025 29.1853C242.01 30.7994 240.911 33.0674 239.729 35.9891C238.841 38.1355 238.14 39.6919 237.627 40.658C237.108 41.6184 236.534 42.0986 235.905 42.0986ZM240.006 22.824C241.592 21.5686 243.169 19.7461 244.738 17.3567C246.307 14.9673 247.598 12.5981 248.613 10.2491C249.628 7.8944 250.136 6.23684 250.136 5.27643C250.136 4.98137 250.061 4.83384 249.911 4.83384C249.507 4.83384 248.668 5.75085 247.394 7.58487C246.119 9.41311 244.781 11.7158 243.38 14.4928C241.978 17.2699 240.854 20.047 240.006 22.824ZM263.475 41.7689C261.964 41.7689 260.857 41.306 260.154 40.3803C259.456 39.4546 259.107 38.231 259.107 36.7094C259.107 35.1936 259.421 33.6026 260.05 31.9363C260.673 30.2701 261.483 28.8815 262.481 27.7707C263.478 26.6599 264.476 26.1045 265.474 26.1045C265.802 26.1045 266.189 26.197 266.633 26.3822C266.189 26.7524 265.655 27.5682 265.033 28.8295C264.404 30.0849 263.859 31.4272 263.398 32.8562C262.936 34.2795 262.705 35.4366 262.705 36.3275C262.705 38.4335 263.369 39.4865 264.695 39.4865C265.474 39.4865 266.396 39.0815 267.463 38.2715C268.536 37.4557 269.589 36.3796 270.621 35.0432C269.589 34.1927 268.787 33.0818 268.216 31.7107C267.639 30.3453 267.351 28.922 267.351 27.4409C267.351 25.5143 267.841 23.8654 268.822 22.4943C269.802 21.1231 271.123 20.4375 272.784 20.4375C274.185 20.4375 275.171 20.8165 275.742 21.5744C276.313 22.3381 276.599 23.3852 276.599 24.7159C276.599 26.1218 276.258 27.7042 275.578 29.463C274.891 31.2218 273.995 32.9343 272.887 34.6006C273.556 34.9708 274.26 35.156 274.998 35.156C276.065 35.156 277.172 34.832 278.32 34.184C279.462 33.536 280.327 32.5264 280.915 31.1553L281.581 31.7107C280.884 33.3422 279.889 34.5456 278.597 35.3209C277.305 36.1019 275.976 36.4924 274.609 36.4924C273.611 36.4924 272.726 36.3073 271.953 35.937C270.621 37.6785 269.208 39.0844 267.714 40.1547C266.221 41.2308 264.808 41.7689 263.475 41.7689ZM271.616 33.6025C272.579 32.1562 273.355 30.6837 273.943 29.1853C274.531 27.6868 274.825 26.307 274.825 25.0457C274.825 24.0101 274.669 23.2348 274.358 22.7199C274.047 22.1992 273.649 21.9389 273.164 21.9389C272.651 21.9389 272.126 22.1876 271.59 22.6852C271.053 23.1885 270.609 23.8741 270.258 24.742C269.912 25.6156 269.739 26.5702 269.739 27.6058C269.739 28.7514 269.894 29.8535 270.206 30.9123C270.517 31.9652 270.987 32.862 271.616 33.6025ZM276.382 55.5414C276.082 55.5414 275.806 55.3939 275.552 55.0988C275.292 54.8037 275.07 54.4711 274.886 54.1008C274.701 53.7305 274.626 53.5078 274.661 53.4326C275.18 51.6564 275.808 49.6922 276.547 47.54C277.36 45.1737 278.043 43.0099 278.597 41.0486C279.151 39.0815 279.73 36.423 280.336 33.0732C280.947 29.7233 281.567 25.4391 282.196 20.2205C282.23 19.8503 282.311 19.5986 282.438 19.4655C282.57 19.3382 282.839 19.2746 283.242 19.2746C284.13 19.2746 284.797 19.5234 285.241 20.0209C285.679 20.5243 285.898 21.126 285.898 21.826C285.898 22.8617 285.474 25.361 284.626 29.3241C285.774 27.1025 287.167 25.1874 288.805 23.5791C290.448 21.9649 292.248 21.1578 294.203 21.1578C295.829 21.1578 297.167 21.7421 298.217 22.9108C299.272 24.0795 299.8 25.6069 299.8 27.493C299.8 29.4543 299.226 31.5371 298.078 33.7414C296.936 35.9457 295.359 37.7797 293.346 39.2435C291.334 40.7014 289.128 41.4304 286.729 41.4304C285.806 41.4304 285.042 41.3292 284.436 41.1267C283.825 40.9242 283.519 40.6928 283.519 40.4324C283.519 40.3225 283.658 40.2502 283.934 40.2154C284.211 40.1749 284.534 40.1547 284.903 40.1547C286.824 40.1547 288.652 39.5443 290.388 38.3236C292.124 37.1028 293.525 35.5465 294.592 33.6546C295.665 31.7685 296.201 29.8824 296.201 27.9963C296.201 26.7351 295.933 25.7053 295.397 24.9068C294.86 24.1142 294.076 23.7179 293.044 23.7179C291.861 23.7179 290.653 24.2068 289.419 25.1846C288.179 26.1681 287.072 27.3541 286.097 28.7427C285.117 30.1312 284.37 31.4359 283.857 32.6566C282.49 38.5058 281.169 43.5884 279.894 47.9045C278.62 52.2205 277.668 54.6736 277.04 55.2637C276.855 55.4488 276.636 55.5414 276.382 55.5414Z" fill="url(#paint1_linear_1551_13)"/>
<defs>
<linearGradient id="paint0_linear_1551_13" x1="12.9595" y1="16.8582" x2="61.394" y2="133.258" gradientUnits="userSpaceOnUse">
<stop stop-color="#FFB200"/>
<stop offset="0.5" stop-color="#E10057"/>
<stop offset="1" stop-color="#5A1A80"/>
</linearGradient>
<linearGradient id="paint1_linear_1551_13" x1="0" y1="0" x2="0" y2="55.5414" gradientUnits="userSpaceOnUse">
<stop offset="0.2" stop-color="white" stop-opacity="0.8"/>
<stop offset="0.8" stop-color="white" stop-opacity="0"/>
</linearGradient>
</defs>
</svg>
