<svg id="svg" version="1.1" xmlns="http://www.w3.org/2000/svg" xmlns:xlink="http://www.w3.org/1999/xlink" width="400" height="400" viewBox="0, 0, 400,400"><g id="svgg"><path id="path0" d="M71.833 153.083 L 71.833 178.167 76.500 178.167 L 81.167 178.167 81.167 187.500 L 81.167 196.833 76.500 196.833 L 71.833 196.833 71.833 201.583 L 71.833 206.333 112.500 206.333 L 153.167 206.333 153.167 167.167 L 153.167 128.000 112.500 128.000 L 71.833 128.000 71.833 153.083 M159.333 167.167 L 159.333 206.333 200.000 206.333 L 240.667 206.333 240.667 167.167 L 240.667 128.000 200.000 128.000 L 159.333 128.000 159.333 167.167 M246.833 167.167 L 246.833 206.333 287.500 206.333 L 328.167 206.333 328.167 201.583 L 328.167 196.833 323.500 196.833 L 318.833 196.833 318.833 187.500 L 318.833 178.167 323.500 178.167 L 328.167 178.167 328.167 153.083 L 328.167 128.000 287.500 128.000 L 246.833 128.000 246.833 167.167 M75.070 187.500 C 75.070 189.287,75.094 190.019,75.124 189.125 C 75.154 188.231,75.154 186.769,75.124 185.875 C 75.094 184.981,75.070 185.713,75.070 187.500 M324.903 187.500 C 324.903 189.287,324.928 190.019,324.958 189.125 C 324.988 188.231,324.988 186.769,324.958 185.875 C 324.928 184.981,324.903 185.713,324.903 187.500 M28.041 234.375 L 28.083 271.917 46.875 271.959 L 65.667 272.001 65.667 234.417 L 65.667 196.833 46.833 196.833 L 27.999 196.833 28.041 234.375 M334.333 234.417 L 334.333 272.001 353.125 271.959 L 371.917 271.917 371.959 234.375 L 372.001 196.833 353.167 196.833 L 334.333 196.833 334.333 234.417 M135.875 212.458 C 171.144 212.481,228.856 212.481,264.125 212.458 C 299.394 212.435,270.538 212.416,200.000 212.416 C 129.462 212.416,100.606 212.435,135.875 212.458 M135.875 237.625 C 171.144 237.648,228.856 237.648,264.125 237.625 C 299.394 237.602,270.538 237.583,200.000 237.583 C 129.462 237.583,100.606 237.602,135.875 237.625 " stroke="none" fill="#bc7c54" fill-rule="evenodd"></path><path id="path1" d="M18.667 187.500 L 18.667 190.667 46.833 190.667 L 75.000 190.667 75.000 187.500 L 75.000 184.333 46.833 184.333 L 18.667 184.333 18.667 187.500 M325.000 187.500 L 325.000 190.667 353.167 190.667 L 381.333 190.667 381.333 187.500 L 381.333 184.333 353.167 184.333 L 325.000 184.333 325.000 187.500 M71.833 225.000 L 71.833 237.500 200.000 237.500 L 328.167 237.500 328.167 225.000 L 328.167 212.500 200.000 212.500 L 71.833 212.500 71.833 225.000 " stroke="none" fill="#fc9c9c" fill-rule="evenodd"></path><path id="path2" d="M71.833 246.833 L 71.833 250.000 200.000 250.000 L 328.167 250.000 328.167 246.833 L 328.167 243.667 200.000 243.667 L 71.833 243.667 71.833 246.833 " stroke="none" fill="#9cecfc" fill-rule="evenodd"></path><path id="path3" d="M65.500 149.917 L 65.500 178.000 39.000 178.000 L 12.500 178.000 12.500 187.500 L 12.500 197.000 17.167 197.000 L 21.833 197.000 21.833 237.583 L 21.833 278.167 46.917 278.167 L 72.000 278.167 72.000 267.250 L 72.000 256.333 200.000 256.333 L 328.000 256.333 328.000 267.250 L 328.000 278.167 353.083 278.167 L 378.167 278.167 378.167 237.583 L 378.167 197.000 382.833 197.000 L 387.500 197.000 387.500 187.500 L 387.500 178.000 361.000 178.000 L 334.500 178.000 334.500 149.917 L 334.500 121.833 200.000 121.833 L 65.500 121.833 65.500 149.917 M153.167 167.167 L 153.167 206.333 112.500 206.333 L 71.833 206.333 71.833 201.583 L 71.833 196.833 76.500 196.833 L 81.167 196.833 81.167 187.500 L 81.167 178.167 76.500 178.167 L 71.833 178.167 71.833 153.083 L 71.833 128.000 112.500 128.000 L 153.167 128.000 153.167 167.167 M240.667 167.167 L 240.667 206.333 200.000 206.333 L 159.333 206.333 159.333 167.167 L 159.333 128.000 200.000 128.000 L 240.667 128.000 240.667 167.167 M328.167 153.083 L 328.167 178.167 323.500 178.167 L 318.833 178.167 318.833 187.500 L 318.833 196.833 323.500 196.833 L 328.167 196.833 328.167 201.583 L 328.167 206.333 287.500 206.333 L 246.833 206.333 246.833 167.167 L 246.833 128.000 287.500 128.000 L 328.167 128.000 328.167 153.083 M75.167 187.500 L 75.167 190.667 46.917 190.667 L 18.667 190.667 18.667 187.500 L 18.667 184.333 46.917 184.333 L 75.167 184.333 75.167 187.500 M381.333 187.500 L 381.333 190.667 353.083 190.667 L 324.833 190.667 324.833 187.500 L 324.833 184.333 353.083 184.333 L 381.333 184.333 381.333 187.500 M65.667 234.417 L 65.667 272.001 46.875 271.959 L 28.083 271.917 28.041 234.375 L 27.999 196.833 46.833 196.833 L 65.667 196.833 65.667 234.417 M371.959 234.375 L 371.917 271.917 353.125 271.959 L 334.333 272.001 334.333 234.417 L 334.333 196.833 353.167 196.833 L 372.001 196.833 371.959 234.375 M328.167 225.000 L 328.167 237.667 200.000 237.667 L 71.833 237.667 71.833 225.000 L 71.833 212.333 200.000 212.333 L 328.167 212.333 328.167 225.000 M328.167 246.917 L 328.167 250.167 200.000 250.167 L 71.833 250.167 71.833 246.917 L 71.833 243.667 200.000 243.667 L 328.167 243.667 328.167 246.917 " stroke="none" fill="#040404" fill-rule="evenodd"></path><path id="path4" d="M135.875 250.125 C 171.144 250.148,228.856 250.148,264.125 250.125 C 299.394 250.102,270.538 250.083,200.000 250.083 C 129.462 250.083,100.606 250.102,135.875 250.125 " stroke="none" fill="#2c7884" fill-rule="evenodd"></path></g></svg>