<?xml version="1.0" ?><svg id="Layer_1" style="enable-background:new 0 0 50 50;" version="1.1" viewBox="0 0 50 50" xml:space="preserve" xmlns="http://www.w3.org/2000/svg" xmlns:xlink="http://www.w3.org/1999/xlink"><style type="text/css">
	.st0{fill:#F0C4DB;}
	.st1{fill:#FF9D9C;}
	.st2{fill:#9BEAF9;}
	.st3{fill:#E9F4BC;}
	.st4{fill:#505050;}
	.st5{fill:#FEBECC;}
	.st6{fill:#FFFFFF;}
	.st7{fill:#FDE4A1;}
	.st8{fill:#FEE7B5;}
	.st9{fill:#CDF6FC;}
	.st10{fill:#F2C6DD;}
	.st11{opacity:0.1;}
</style><g><path class="st10" d="M48.8,44.07c0-9.61-7.64-17.65-17.25-17.75c-0.07,0-0.15,0-0.22,0c-11.6,0-21,9.4-21,21   c0,0.59,0.04,1.17,0.09,1.75H48.8V44.07z"/><g><g><path class="st2" d="M34.65,22.65l-7.71-7.69c-2.32-1.16-4.96-1.82-7.73-1.82c-4.38,0-8.37,1.63-11.42,4.33     c-3.58,3.16-5.85,7.79-5.85,12.94c0,5.63,2.69,10.63,6.87,13.78c2.89,2.19,6.5,3.49,10.4,3.49c4.38,0,8.37-1.63,11.42-4.32     c3.59-3.16,5.85-7.8,5.85-12.95C36.49,27.63,35.83,24.99,34.65,22.65z"/><polygon class="st7" points="29.16,25.48 31.86,21.13 28.49,17.75 24.14,20.46    "/><path class="st3" d="M42.36,16.77c1.7,3.02,1.27,6.91-1.3,9.48l-4.57-4.57"/><path class="st3" d="M27.93,13.12L23.3,8.49c2.59-2.59,6.54-3.01,9.56-1.25"/><path class="st1" d="M33.78,23.05c2.77-1.17,5.26-2.86,7.35-4.96c4.2-4.2,6.8-10.01,6.8-16.42c-9.61,0-17.84,5.83-21.37,14.15     L33.78,23.05z"/><circle class="st6" cx="40.06" cy="9.55" r="3.16"/></g><g><path class="st4" d="M2.38,26.5c0.06,0.02,0.13,0.02,0.2,0.02c0.34,0,0.63-0.22,0.72-0.54c0.11-0.4-0.12-0.82-0.52-0.93     c-0.39-0.11-0.81,0.13-0.92,0.52C1.75,25.97,1.98,26.39,2.38,26.5z"/><path class="st4" d="M48.69,1.68c0-0.41-0.34-0.75-0.75-0.75c-5.66,0-10.97,1.99-15.16,5.42c-3.31-1.66-7.35-1.04-10,1.61     c-0.14,0.14-0.22,0.33-0.22,0.53s0.08,0.39,0.22,0.53l4.24,4.24c-0.13,0.24-0.27,0.47-0.4,0.72c-2.29-1.03-4.81-1.58-7.34-1.59     c-0.02,0-0.04,0-0.05,0c-0.02,0-0.04,0.01-0.06,0.01C14.78,12.4,10.57,14,7.3,16.91c-2.08,1.83-3.72,4.14-4.77,6.69     c-0.07,0.18-0.07,0.39,0.01,0.57c0.07,0.19,0.22,0.33,0.4,0.41c0.1,0.03,0.19,0.05,0.29,0.05c0.3,0,0.58-0.18,0.69-0.46     c0.89-2.16,2.26-4.12,3.96-5.73c1.24,0.87,2.58,1.57,4,2.11c-0.86,2.72-1.34,5.83-1.4,9.12H2.73c0.03-0.61,0.08-1.22,0.17-1.82     c0.06-0.41-0.22-0.79-0.63-0.85c-0.41-0.06-0.79,0.22-0.85,0.62c-0.15,0.91-0.22,1.85-0.22,2.78c0,0.01,0,0.01,0,0.02     c0,0.01,0,0.01,0,0.02c0,2.87,0.66,5.61,1.95,8.14C4.38,41,6.19,43.15,8.37,44.8c3.13,2.36,6.86,3.62,10.8,3.63     c0.02,0,0.03,0,0.05,0c0,0,0,0,0,0c0,0,0,0,0,0c0,0,0,0,0,0c0.01,0,0.03,0,0.04,0c4.37-0.01,8.59-1.61,11.87-4.5     c3.88-3.42,6.11-8.34,6.11-13.52c0,0,0,0,0,0c0,0,0,0,0,0c0,0,0,0,0,0c0-2.55-0.55-5.1-1.6-7.42c0.24-0.12,0.49-0.24,0.72-0.37     l4.17,4.17c0.15,0.15,0.34,0.22,0.53,0.22s0.38-0.07,0.53-0.22c2.61-2.61,3.26-6.62,1.66-9.91C46.77,12.6,48.69,7.29,48.69,1.68z      M40.61,17.56c-1.93,1.93-4.17,3.48-6.65,4.6l-3.25-3.25l-1.69-1.69c0,0,0,0,0,0l-1.56-1.56C30.99,7.84,38.62,2.73,47.18,2.44     C46.99,8.16,44.67,13.5,40.61,17.56z M30.91,21.24l-1.89,3.04l-3.68-3.68l3.04-1.89l1.27,1.27L30.91,21.24z M13.5,40.45     c-0.93-2.69-1.46-5.93-1.53-9.29h6.5v8.06C16.75,39.38,15.08,39.81,13.5,40.45z M18.47,40.73v6.09     c-1.21-0.31-2.41-1.35-3.44-3.02c-0.36-0.6-0.69-1.27-0.99-1.96C15.46,41.27,16.94,40.89,18.47,40.73z M12.68,42.47     c0.32,0.74,0.67,1.46,1.07,2.12c0.44,0.71,0.9,1.31,1.39,1.83c-1.8-0.46-3.5-1.22-5.07-2.27C10.89,43.5,11.76,42.94,12.68,42.47z      M19.97,40.63c0.09,0,0.18-0.01,0.27-0.01c1.51,0,2.99,0.21,4.41,0.61c-0.25,0.64-0.51,1.25-0.8,1.79     c-1.13,2.14-2.48,3.46-3.88,3.81V40.63z M25.18,43.71c0.32-0.61,0.62-1.3,0.9-2.02c1.16,0.44,2.27,1.01,3.31,1.71     c-1.81,1.42-3.88,2.43-6.08,3C23.98,45.68,24.61,44.79,25.18,43.71z M20.24,39.12c-0.09,0-0.18,0.01-0.27,0.01v-7.98h6.49     c-0.06,3.12-0.52,6.08-1.33,8.65C23.56,39.36,21.92,39.12,20.24,39.12z M19.97,29.66v-8.07c1.21-0.11,2.4-0.35,3.57-0.71     c0.03,0.04,0.04,0.09,0.08,0.12l2.09,2.09c0.47,2.05,0.72,4.26,0.76,6.57H19.97z M19.97,20.08v-6.1c1.5,0.37,2.68,1.8,3.43,3.02     c0.36,0.59,0.69,1.26,0.99,1.97C22.97,19.55,21.49,19.92,19.97,20.08z M12.36,19.12c-1.17-0.44-2.28-1.01-3.32-1.7     c1.81-1.42,3.88-2.44,6.09-3.01c-0.68,0.72-1.31,1.62-1.88,2.7C12.94,17.71,12.64,18.4,12.36,19.12z M14.58,17.81     c1.13-2.15,2.49-3.47,3.89-3.83v6.19c-1.56,0.05-3.15-0.17-4.68-0.59C14.04,18.95,14.3,18.34,14.58,17.81z M24.39,8.52     c2.01-1.63,4.76-2.04,7.15-1.09c-1.41,1.33-2.67,2.83-3.74,4.5L24.39,8.52z M26.04,16.36l1.25,1.25l-1.46,0.91     c-0.35-0.83-0.73-1.61-1.15-2.3c-0.43-0.7-0.89-1.29-1.36-1.8c0.91,0.23,1.79,0.55,2.65,0.93c-0.03,0.06-0.06,0.13-0.09,0.19     C25.76,15.82,25.82,16.15,26.04,16.36z M13.3,21.01c1.59,0.45,3.23,0.69,4.88,0.69c0.1,0,0.19-0.01,0.28-0.01v7.97h-6.49     C12.04,26.53,12.5,23.58,13.3,21.01z M2.74,31.16h7.72c0.07,3.58,0.65,7.04,1.66,9.91c-1.17,0.59-2.27,1.31-3.3,2.16     C5.13,40.22,2.95,35.9,2.74,31.16z M30.55,42.39c-1.25-0.88-2.59-1.59-4-2.12c0.86-2.72,1.34-5.83,1.4-9.12h7.74     C35.51,35.43,33.67,39.45,30.55,42.39z M35.7,29.66h-7.73c-0.03-1.62-0.16-3.19-0.39-4.7l1.05,1.05     c0.14,0.14,0.33,0.22,0.53,0.22c0.03,0,0.06,0,0.09,0c0.23-0.03,0.43-0.15,0.55-0.35L32,22.33l1.25,1.25     c0.14,0.14,0.34,0.22,0.53,0.22c0.1,0,0.2-0.02,0.29-0.06c0.07-0.03,0.13-0.06,0.19-0.09C35.13,25.55,35.61,27.57,35.7,29.66z      M41.04,25.16l-3.35-3.35c1.43-0.92,2.77-1.97,3.98-3.19c0.17-0.17,0.33-0.34,0.49-0.52C43.06,20.47,42.64,23.18,41.04,25.16z"/><path class="st4" d="M40.06,13.46c1,0,2-0.38,2.77-1.14c1.52-1.52,1.52-4.01,0-5.53c-1.53-1.53-4.01-1.52-5.53,0     s-1.52,4.01,0,5.53C38.06,13.08,39.06,13.46,40.06,13.46z M38.36,7.85c0.47-0.47,1.09-0.71,1.71-0.71c0.62,0,1.23,0.23,1.71,0.71     c0.94,0.94,0.94,2.47,0,3.41c-0.94,0.94-2.47,0.94-3.41,0C37.42,10.32,37.42,8.79,38.36,7.85z"/></g></g></g></svg>