<svg id="Layer_1" enable-background="new 0 0 512.002 512.002" height="512" viewBox="0 0 512.002 512.002" width="512" xmlns="http://www.w3.org/2000/svg"><path d="m511.909 488.834-37.018-331c-.85-7.592-7.268-13.333-14.907-13.333h-92.483v-26.5c0-61.481-50.019-111.5-111.5-111.5s-111.5 50.019-111.5 111.5v26.5h-92.531c-7.64 0-14.06 5.742-14.907 13.335l-36.97 331c-.474 4.242.882 8.484 3.728 11.666s6.911 5 11.18 5h482.002c4.269 0 8.335-1.818 11.181-5s4.2-7.426 3.725-11.668zm-337.408-370.833c0-44.939 36.561-81.5 81.5-81.5s81.5 36.561 81.5 81.5v26.5h-163zm-142.732 357.5 33.619-301h79.113v32.581c-17.459 6.192-30 22.865-30 42.419 0 24.813 20.187 45 45 45s45-20.187 45-45c0-19.555-12.541-36.227-30-42.419v-32.581h163v32.581c-17.459 6.192-30 22.865-30 42.419 0 24.813 20.187 45 45 45s45-20.187 45-45c0-19.555-12.541-36.227-30-42.419v-32.581h79.067l33.663 301zm127.732-240.999c8.271 0 15 6.729 15 15s-6.729 15-15 15-15-6.729-15-15 6.728-15 15-15zm193 0c8.271 0 15 6.729 15 15s-6.729 15-15 15-15-6.729-15-15 6.728-15 15-15z"/></svg>