<?xml version="1.0" encoding="utf-8"?>
<!-- Generator: Adobe Illustrator 26.0.2, SVG Export Plug-In . SVG Version: 6.00 Build 0)  -->
<svg version="1.1" id="Capa_1" xmlns="http://www.w3.org/2000/svg" xmlns:xlink="http://www.w3.org/1999/xlink" x="0px" y="0px"
	 viewBox="0 0 266 78" style="enable-background:new 0 0 266 78;" xml:space="preserve" width="278px" height="78px">
<style type="text/css">
	.st0{fill:#FF7600;}
	.st1{fill:#0D4F7C;}
</style>
<g>
	<path class="st0" d="M46.8,56.3c0.7,0.9,1.8,1.4,3.1,1.4c2.6,0,5.1-2.1,5.6-4.8c0.2-1.3-0.1-2.5-0.8-3.4c-0.7-0.9-1.8-1.4-3.1-1.4
		c-2.6,0-5.1,2.1-5.6,4.8C45.7,54.2,46,55.4,46.8,56.3z"/>
	<path class="st0" d="M36.9,48.1c-2.6,0-5.1,2.1-5.6,4.8c-0.2,1.3,0.1,2.5,0.8,3.4c0.7,0.9,1.8,1.4,3.1,1.4c2.6,0,5.1-2.1,5.6-4.8
		c0.2-1.3-0.1-2.5-0.8-3.4C39.3,48.6,38.2,48.1,36.9,48.1z"/>
	<path class="st0" d="M65.5,61.7c3.6-3.1,6.7-6.7,9.1-10.7c2.5-4.1,4.1-8.5,4.9-13c0.8-4.5,0.7-8.9-0.3-13v0c-1-4-2.8-7.6-5.3-10.6
		c-2.5-3.1-5.7-5.5-9.4-7.2c-3.8-1.7-8.1-2.6-12.6-2.6c-4.5,0-9.1,0.9-13.5,2.6c-4.3,1.7-8.3,4.1-11.9,7.2
		c-3.6,3.1-6.7,6.7-9.1,10.7c-1.2,2-2.2,4.1-3.1,6.3h6.7l0.1,0h9.1L30.4,43c0,1.5,1.2,2.6,2.7,2.6h23.4c1.4,0,2.9-1,3.6-2.3
		l6.9-14.4c0.5-1,0.5-2.1,0-2.9c-0.5-0.8-1.4-1.3-2.4-1.3H49.7c-3.9,0-7.2,2.7-8,6.5H59l-3.7,7.8H37l-0.2-11.7
		c0-1.5-1.2-2.6-2.7-2.6h-9.3l0.2-0.2c1.5-2,3.3-3.9,5.3-5.6c6-5.1,13.2-7.9,20.4-7.9c7.2,0,13.5,2.8,17.7,7.9
		C72.6,24,74.2,30.8,73,38c-1.3,7.2-5.3,14-11.2,19c-6,5.1-13.2,7.9-20.4,7.9c-7.2,0-13.5-2.8-17.7-7.9c-3.2-3.9-4.9-8.8-5-14.1
		l0-0.1h4.3l-4.6-8.2L7.9,42.8H12l0,0.2L6.5,71.5h33.3l0.3,0c4.5,0,9-0.9,13.4-2.6C57.9,67.2,61.9,64.8,65.5,61.7z"/>
</g>
<g>
	<path class="st0" d="M99.3,44.2h7.9v15.4c0,1.5-0.2,3-0.7,4.3c-0.5,1.4-1.2,2.5-2.2,3.5c-1,1-2.1,1.7-3.2,2.1
		c-1.5,0.6-3.4,0.9-5.6,0.9c-1.3,0-2.6-0.1-4.1-0.3s-2.7-0.5-3.7-1s-1.9-1.3-2.7-2.2c-0.8-1-1.4-2-1.7-3c-0.5-1.6-0.7-3.1-0.7-4.4
		V44.2h7.9v15.7c0,1.4,0.4,2.5,1.2,3.3c0.8,0.8,1.9,1.2,3.2,1.2c1.4,0,2.4-0.4,3.2-1.2c0.8-0.8,1.2-1.9,1.2-3.3V44.2z"/>
	<path class="st0" d="M110.6,44.2h13.2c2.9,0,5,0.7,6.5,2.1s2.2,3.3,2.2,5.9c0,2.6-0.8,4.6-2.3,6.1s-4,2.2-7.2,2.2h-4.4v9.6h-8V44.2
		z M118.6,55.1h2c1.5,0,2.6-0.3,3.2-0.8s0.9-1.2,0.9-2c0-0.8-0.3-1.5-0.8-2.1s-1.6-0.8-3-0.8h-2.3V55.1z"/>
	<path class="st1" d="M134.8,44.2h10.5l4,15.7l4-15.7h10.5v25.8h-6.5V50.3l-5,19.7h-5.9l-5-19.7v19.7h-6.5V44.2z"/>
	<path class="st1" d="M173.1,57.3l-6.8-0.7c0.3-1.2,0.6-2.1,1.1-2.8s1.2-1.3,2.1-1.8c0.7-0.4,1.6-0.6,2.7-0.8s2.4-0.3,3.7-0.3
		c2.1,0,3.9,0.1,5.2,0.4s2.4,0.7,3.3,1.5c0.6,0.5,1.1,1.3,1.4,2.2s0.5,1.9,0.5,2.8V66c0,0.9,0.1,1.6,0.2,2.1s0.4,1.1,0.7,1.9h-6.7
		c-0.3-0.5-0.4-0.8-0.5-1.1s-0.2-0.6-0.2-1.2c-0.9,0.9-1.9,1.5-2.8,1.9c-1.3,0.5-2.7,0.8-4.4,0.8c-2.2,0-3.9-0.5-5.1-1.5
		s-1.7-2.3-1.7-3.8c0-1.4,0.4-2.6,1.2-3.5s2.4-1.6,4.6-2c2.7-0.5,4.4-0.9,5.2-1.1s1.6-0.5,2.5-0.9c0-0.9-0.2-1.5-0.5-1.8
		s-1-0.5-1.9-0.5c-1.2,0-2.1,0.2-2.6,0.6C173.8,55.9,173.4,56.5,173.1,57.3z M179.3,61.1c-1,0.4-2,0.7-3.1,0.9
		c-1.5,0.4-2.4,0.8-2.8,1.1c-0.4,0.4-0.6,0.8-0.6,1.3c0,0.6,0.2,1,0.6,1.4s1,0.5,1.7,0.5c0.8,0,1.5-0.2,2.2-0.6s1.2-0.9,1.5-1.4
		s0.4-1.3,0.4-2.2V61.1z"/>
	<path class="st1" d="M188.9,51.3h6.7v3.1c0.6-1.3,1.3-2.2,2-2.7s1.5-0.7,2.5-0.7c1.1,0,2.2,0.3,3.5,1l-2.2,5.1
		c-0.8-0.4-1.5-0.5-2-0.5c-0.9,0-1.7,0.4-2.2,1.2c-0.7,1.1-1.1,3.1-1.1,6.1v6.3h-7.2V51.3z"/>
	<path class="st1" d="M204.2,44.2h7.3v13.3l5.3-6.2h8.8l-6.7,6.5l7.1,12.1H218l-3.8-7.5l-2.7,2.6v4.9h-7.3V44.2z"/>
	<path class="st1" d="M245.9,62.4h-14.3c0.1,1.1,0.4,2,0.9,2.6c0.7,0.8,1.6,1.2,2.7,1.2c0.7,0,1.4-0.2,2-0.5
		c0.4-0.2,0.8-0.6,1.2-1.2l7,0.7c-1.1,1.9-2.4,3.2-3.9,4s-3.7,1.2-6.6,1.2c-2.5,0-4.4-0.3-5.8-1s-2.6-1.8-3.5-3.3s-1.4-3.3-1.4-5.4
		c0-2.9,0.9-5.3,2.8-7.1s4.5-2.7,7.7-2.7c2.7,0,4.8,0.4,6.3,1.2s2.7,2,3.5,3.5s1.2,3.5,1.2,6V62.4z M238.6,58.9
		c-0.1-1.4-0.5-2.4-1.1-3s-1.4-0.9-2.4-0.9c-1.1,0-2,0.5-2.7,1.4c-0.4,0.6-0.7,1.4-0.8,2.5H238.6z"/>
	<path class="st1" d="M256,44.2v7.1h3.9v5.2H256v6.6c0,0.8,0.1,1.3,0.2,1.6c0.2,0.4,0.6,0.6,1.2,0.6c0.5,0,1.3-0.2,2.2-0.5l0.5,4.9
		c-1.8,0.4-3.4,0.6-5,0.6c-1.8,0-3.1-0.2-3.9-0.7c-0.8-0.5-1.5-1.2-1.9-2.1c-0.4-0.9-0.6-2.4-0.6-4.5v-6.6h-2.6v-5.2h2.6v-3.4
		L256,44.2z"/>
</g>
</svg>
